[{"_id":"5051139a-1170-4a8e-bf6d-267a9ac129c5","src":"02. Dekho Na.mp3","filepath":"C:\\Users\\sc041311\\OneDrive - Cerner Corporation\\Desktop\\musify-s3-data-creator\\routes\\data\\media\\02. Dekho Na.mp3","httpFilePathLocal":"http://localhost:3000/private/data/media/02. Dekho Na.mp3","httpFilePathHerokuServer":"https://musify0908.herokuapp.com/private/data/media/02. Dekho Na.mp3","s3Path":"https://musify9088.s3.us-east-2.amazonaws.com/02.+Dekho+Na.mp3","metadata":{"streams":[{"index":0,"codec_name":"mp3","codec_long_name":"MP3 (MPEG audio layer 3)","profile":"unknown","codec_type":"audio","codec_tag_string":"[0][0][0][0]","codec_tag":"0x0000","sample_fmt":"fltp","sample_rate":44100,"channels":2,"channel_layout":"stereo","bits_per_sample":0,"id":"N/A","r_frame_rate":"0/0","avg_frame_rate":"0/0","time_base":"1/14112000","start_pts":0,"start_time":0,"duration_ts":4890468442,"duration":346.5468,"bit_rate":160000,"max_bit_rate":"N/A","bits_per_raw_sample":"N/A","nb_frames":"N/A","nb_read_frames":"N/A","nb_read_packets":"N/A","disposition":{"default":0,"dub":0,"original":0,"comment":0,"lyrics":0,"karaoke":0,"forced":0,"hearing_impaired":0,"visual_impaired":0,"clean_effects":0,"attached_pic":0,"timed_thumbnails":0,"captions":0,"descriptions":0,"metadata":0,"dependent":0,"still_image":0}},{"index":1,"codec_name":"mjpeg","codec_long_name":"Motion JPEG","profile":"Baseline","codec_type":"video","codec_tag_string":"[0][0][0][0]","codec_tag":"0x0000","width":500,"height":500,"coded_width":500,"coded_height":500,"closed_captions":0,"has_b_frames":0,"sample_aspect_ratio":"N/A","display_aspect_ratio":"N/A","pix_fmt":"yuvj444p","level":"-99","color_range":"pc","color_space":"bt470bg","color_transfer":"unknown","color_primaries":"unknown","chroma_location":"center","field_order":"unknown","refs":1,"id":"N/A","r_frame_rate":"90000/1","avg_frame_rate":"0/0","time_base":"1/90000","start_pts":"N/A","start_time":"N/A","duration_ts":31189212,"duration":346.5468,"bit_rate":"N/A","max_bit_rate":"N/A","bits_per_raw_sample":8,"nb_frames":"N/A","nb_read_frames":"N/A","nb_read_packets":"N/A","tags":{"title":"Cover Image","comment":"Cover (front)"},"disposition":{"default":0,"dub":0,"original":0,"comment":0,"lyrics":0,"karaoke":0,"forced":0,"hearing_impaired":0,"visual_impaired":0,"clean_effects":0,"attached_pic":1,"timed_thumbnails":0,"captions":0,"descriptions":0,"metadata":0,"dependent":0,"still_image":0}}],"format":{"filename":"C:\\Users\\sc041311\\OneDrive - Cerner Corporation\\Desktop\\musify-s3-data-creator\\routes\\data\\media\\02. Dekho Na.mp3","nb_streams":2,"nb_programs":0,"format_name":"mp3","format_long_name":"MP2/3 (MPEG audio layer 2/3)","start_time":0,"duration":346.5468,"size":6977016,"bit_rate":161063,"probe_score":51,"tags":{"title":"02. Dekho Na","album":"Swades","comment":"pagalworld.com","publisher":"pagalworld.com","encoded_by":"pagalworld.com","TRSN":"pagalworld.com","artist":"pagalworld.com","composer":"pagalworld.com","album_artist":"pagalworld.com","genre":"pagalworld.com","TOPE":"pagalworld.com","date":"2004"}},"chapters":[]}},{"_id":"e90ee1ed-6c85-4b0e-94f1-aec7fac2b71d","src":"Dekh Toofaan Aaya Hai - Toofaan 320 Kbps.mp3","filepath":"C:\\Users\\sc041311\\OneDrive - Cerner Corporation\\Desktop\\musify-s3-data-creator\\routes\\data\\media\\Dekh Toofaan Aaya Hai - Toofaan 320 Kbps.mp3","httpFilePathLocal":"http://localhost:3000/private/data/media/Dekh Toofaan Aaya Hai - Toofaan 320 Kbps.mp3","httpFilePathHerokuServer":"https://musify0908.herokuapp.com/private/data/media/Dekh Toofaan Aaya Hai - Toofaan 320 Kbps.mp3","s3Path":"https://musify9088.s3.us-east-2.amazonaws.com/Dekh+Toofaan+Aaya+Hai+-+Toofaan+320+Kbps.mp3","metadata":{"streams":[{"index":0,"codec_name":"mp3","codec_long_name":"MP3 (MPEG audio layer 3)","profile":"unknown","codec_type":"audio","codec_tag_string":"[0][0][0][0]","codec_tag":"0x0000","sample_fmt":"fltp","sample_rate":44100,"channels":2,"channel_layout":"stereo","bits_per_sample":0,"id":"N/A","r_frame_rate":"0/0","avg_frame_rate":"0/0","time_base":"1/14112000","start_pts":353600,"start_time":0.025057,"duration_ts":2183823360,"duration":154.749388,"bit_rate":320000,"max_bit_rate":"N/A","bits_per_raw_sample":"N/A","nb_frames":"N/A","nb_read_frames":"N/A","nb_read_packets":"N/A","tags":{"encoder":"Lavc58.47"},"disposition":{"default":0,"dub":0,"original":0,"comment":0,"lyrics":0,"karaoke":0,"forced":0,"hearing_impaired":0,"visual_impaired":0,"clean_effects":0,"attached_pic":0,"timed_thumbnails":0,"captions":0,"descriptions":0,"metadata":0,"dependent":0,"still_image":0}},{"index":1,"codec_name":"mjpeg","codec_long_name":"Motion JPEG","profile":"Baseline","codec_type":"video","codec_tag_string":"[0][0][0][0]","codec_tag":"0x0000","width":500,"height":500,"coded_width":500,"coded_height":500,"closed_captions":0,"has_b_frames":0,"sample_aspect_ratio":"1:1","display_aspect_ratio":"1:1","pix_fmt":"yuvj420p","level":"-99","color_range":"pc","color_space":"bt470bg","color_transfer":"unknown","color_primaries":"unknown","chroma_location":"center","field_order":"unknown","refs":1,"id":"N/A","r_frame_rate":"90000/1","avg_frame_rate":"0/0","time_base":"1/90000","start_pts":2255,"start_time":0.025056,"duration_ts":13927445,"duration":154.749389,"bit_rate":"N/A","max_bit_rate":"N/A","bits_per_raw_sample":8,"nb_frames":"N/A","nb_read_frames":"N/A","nb_read_packets":"N/A","tags":{"comment":"Other"},"disposition":{"default":0,"dub":0,"original":0,"comment":0,"lyrics":0,"karaoke":0,"forced":0,"hearing_impaired":0,"visual_impaired":0,"clean_effects":0,"attached_pic":1,"timed_thumbnails":0,"captions":0,"descriptions":0,"metadata":0,"dependent":0,"still_image":0}}],"format":{"filename":"C:\\Users\\sc041311\\OneDrive - Cerner Corporation\\Desktop\\musify-s3-data-creator\\routes\\data\\media\\Dekh Toofaan Aaya Hai - Toofaan 320 Kbps.mp3","nb_streams":2,"nb_programs":0,"format_name":"mp3","format_long_name":"MP2/3 (MPEG audio layer 2/3)","start_time":0.025056,"duration":154.749388,"size":6258069,"bit_rate":323520,"probe_score":51,"tags":{"album":"Toofaan","artist":"DEVIL","album_artist":"D’EVIL","comment":"Pagalsong","composer":"Shankar-Ehsaan-Loy","copyright":"Pagalsong","encoder":"Lavf58.26.101","genre":"Toofaan","publisher":"Pagalsong","title":"Dekh Toofaan Aaya Hai","minor_version":"512","compatible_brands":"isomiso2mp41","description":"Farhan Akhtar, Paresh Rawal, Mrunal Thakur","major_brand":"isom","date":"2021"}},"chapters":[]}},{"_id":"596b2c89-dca7-4087-98de-2398fa1180bb","src":"Ishq Namazaa - The Big Bull (1).mp3","filepath":"C:\\Users\\sc041311\\OneDrive - Cerner Corporation\\Desktop\\musify-s3-data-creator\\routes\\data\\media\\Ishq Namazaa - The Big Bull (1).mp3","httpFilePathLocal":"http://localhost:3000/private/data/media/Ishq Namazaa - The Big Bull (1).mp3","httpFilePathHerokuServer":"https://musify0908.herokuapp.com/private/data/media/Ishq Namazaa - The Big Bull (1).mp3","s3Path":"https://musify9088.s3.us-east-2.amazonaws.com/Ishq+Namazaa+-+The+Big+Bull+(1).mp3","metadata":{"streams":[{"index":0,"codec_name":"mp3","codec_long_name":"MP3 (MPEG audio layer 3)","profile":"unknown","codec_type":"audio","codec_tag_string":"[0][0][0][0]","codec_tag":"0x0000","sample_fmt":"fltp","sample_rate":44100,"channels":2,"channel_layout":"stereo","bits_per_sample":0,"id":"N/A","r_frame_rate":"0/0","avg_frame_rate":"0/0","time_base":"1/14112000","start_pts":353600,"start_time":0.025057,"duration_ts":3749806080,"duration":265.717551,"bit_rate":320000,"max_bit_rate":"N/A","bits_per_raw_sample":"N/A","nb_frames":"N/A","nb_read_frames":"N/A","nb_read_packets":"N/A","tags":{"encoder":"Lavc56.60"},"disposition":{"default":0,"dub":0,"original":0,"comment":0,"lyrics":0,"karaoke":0,"forced":0,"hearing_impaired":0,"visual_impaired":0,"clean_effects":0,"attached_pic":0,"timed_thumbnails":0,"captions":0,"descriptions":0,"metadata":0,"dependent":0,"still_image":0}},{"index":1,"codec_name":"mjpeg","codec_long_name":"Motion JPEG","profile":"Baseline","codec_type":"video","codec_tag_string":"[0][0][0][0]","codec_tag":"0x0000","width":500,"height":500,"coded_width":500,"coded_height":500,"closed_captions":0,"has_b_frames":0,"sample_aspect_ratio":"1:1","display_aspect_ratio":"1:1","pix_fmt":"yuvj420p","level":"-99","color_range":"pc","color_space":"bt470bg","color_transfer":"unknown","color_primaries":"unknown","chroma_location":"center","field_order":"unknown","refs":1,"id":"N/A","r_frame_rate":"90000/1","avg_frame_rate":"0/0","time_base":"1/90000","start_pts":2255,"start_time":0.025056,"duration_ts":23914580,"duration":265.717556,"bit_rate":"N/A","max_bit_rate":"N/A","bits_per_raw_sample":8,"nb_frames":"N/A","nb_read_frames":"N/A","nb_read_packets":"N/A","tags":{"comment":"Cover (front)"},"disposition":{"default":0,"dub":0,"original":0,"comment":0,"lyrics":0,"karaoke":0,"forced":0,"hearing_impaired":0,"visual_impaired":0,"clean_effects":0,"attached_pic":1,"timed_thumbnails":0,"captions":0,"descriptions":0,"metadata":0,"dependent":0,"still_image":0}}],"format":{"filename":"C:\\Users\\sc041311\\OneDrive - Cerner Corporation\\Desktop\\musify-s3-data-creator\\routes\\data\\media\\Ishq Namazaa - The Big Bull (1).mp3","nb_streams":2,"nb_programs":0,"format_name":"mp3","format_long_name":"MP2/3 (MPEG audio layer 2/3)","start_time":0.025056,"duration":265.717551,"size":10731634,"bit_rate":323098,"probe_score":51,"tags":{"album_artist":"Ankit Tiwari (Pagalworld.tv)","title":"Ishq Namazaa (Pagalworld.tv)","album":"The Big Bull (Pagalworld.tv)","comment":"","genre":"Bollywood","artist":"Ankit Tiwari (Pagalworld.tv)","composer":"Gourov Dasgupta","date":"2021"}},"chapters":[]}},{"_id":"d349876f-2782-46d1-be29-1eea7c796e48","src":"Milaa Yun - Haseen Dilruba 320 Kbps.mp3","filepath":"C:\\Users\\sc041311\\OneDrive - Cerner Corporation\\Desktop\\musify-s3-data-creator\\routes\\data\\media\\Milaa Yun - Haseen Dilruba 320 Kbps.mp3","httpFilePathLocal":"http://localhost:3000/private/data/media/Milaa Yun - Haseen Dilruba 320 Kbps.mp3","httpFilePathHerokuServer":"https://musify0908.herokuapp.com/private/data/media/Milaa Yun - Haseen Dilruba 320 Kbps.mp3","s3Path":"https://musify9088.s3.us-east-2.amazonaws.com/Milaa+Yun+-+Haseen+Dilruba+320+Kbps.mp3","metadata":{"streams":[{"index":0,"codec_name":"mp3","codec_long_name":"MP3 (MPEG audio layer 3)","profile":"unknown","codec_type":"audio","codec_tag_string":"[0][0][0][0]","codec_tag":"0x0000","sample_fmt":"fltp","sample_rate":44100,"channels":2,"channel_layout":"stereo","bits_per_sample":0,"id":"N/A","r_frame_rate":"0/0","avg_frame_rate":"0/0","time_base":"1/14112000","start_pts":353600,"start_time":0.025057,"duration_ts":3121643520,"duration":221.204898,"bit_rate":320000,"max_bit_rate":"N/A","bits_per_raw_sample":"N/A","nb_frames":"N/A","nb_read_frames":"N/A","nb_read_packets":"N/A","tags":{"encoder":"Lavc58.47"},"disposition":{"default":0,"dub":0,"original":0,"comment":0,"lyrics":0,"karaoke":0,"forced":0,"hearing_impaired":0,"visual_impaired":0,"clean_effects":0,"attached_pic":0,"timed_thumbnails":0,"captions":0,"descriptions":0,"metadata":0,"dependent":0,"still_image":0}},{"index":1,"codec_name":"mjpeg","codec_long_name":"Motion JPEG","profile":"Baseline","codec_type":"video","codec_tag_string":"[0][0][0][0]","codec_tag":"0x0000","width":500,"height":500,"coded_width":500,"coded_height":500,"closed_captions":0,"has_b_frames":0,"sample_aspect_ratio":"1:1","display_aspect_ratio":"1:1","pix_fmt":"yuvj420p","level":"-99","color_range":"pc","color_space":"bt470bg","color_transfer":"unknown","color_primaries":"unknown","chroma_location":"center","field_order":"unknown","refs":1,"id":"N/A","r_frame_rate":"90000/1","avg_frame_rate":"0/0","time_base":"1/90000","start_pts":2255,"start_time":0.025056,"duration_ts":19908441,"duration":221.2049,"bit_rate":"N/A","max_bit_rate":"N/A","bits_per_raw_sample":8,"nb_frames":"N/A","nb_read_frames":"N/A","nb_read_packets":"N/A","tags":{"comment":"Other"},"disposition":{"default":0,"dub":0,"original":0,"comment":0,"lyrics":0,"karaoke":0,"forced":0,"hearing_impaired":0,"visual_impaired":0,"clean_effects":0,"attached_pic":1,"timed_thumbnails":0,"captions":0,"descriptions":0,"metadata":0,"dependent":0,"still_image":0}}],"format":{"filename":"C:\\Users\\sc041311\\OneDrive - Cerner Corporation\\Desktop\\musify-s3-data-creator\\routes\\data\\media\\Milaa Yun - Haseen Dilruba 320 Kbps.mp3","nb_streams":2,"nb_programs":0,"format_name":"mp3","format_long_name":"MP2/3 (MPEG audio layer 2/3)","start_time":0.025056,"duration":221.204898,"size":8934151,"bit_rate":323108,"probe_score":51,"tags":{"album":"Haseen Dilruba","artist":"Yashita Sharma, Abhay Jodhpurkar, Amit Trivedi","album_artist":"Yashita Sharma, Abhay Jodhpurkar, Amit Trivedi","comment":"Pagalsong","copyright":"Pagalsong","encoder":"Lavf58.26.101","genre":"Milaa Yun (From &quot;Haseen Dillruba&quot;)","publisher":"Pagalsong","title":"Milaa Yun","minor_version":"512","compatible_brands":"isomiso2mp41","description":"Taapsee Pannu, Vikrant Massey, Harshvardhan Rane","major_brand":"isom","date":"2021"}},"chapters":[]}},{"_id":"5279396b-74c9-4319-b74a-92a6261cb55d","src":"Parinda - Saina.mp3","filepath":"C:\\Users\\sc041311\\OneDrive - Cerner Corporation\\Desktop\\musify-s3-data-creator\\routes\\data\\media\\Parinda - Saina.mp3","httpFilePathLocal":"http://localhost:3000/private/data/media/Parinda - Saina.mp3","httpFilePathHerokuServer":"https://musify0908.herokuapp.com/private/data/media/Parinda - Saina.mp3","s3Path":"https://musify9088.s3.us-east-2.amazonaws.com/Parinda+-+Saina.mp3","metadata":{"streams":[{"index":0,"codec_name":"mp3","codec_long_name":"MP3 (MPEG audio layer 3)","profile":"unknown","codec_type":"audio","codec_tag_string":"[0][0][0][0]","codec_tag":"0x0000","sample_fmt":"fltp","sample_rate":48000,"channels":2,"channel_layout":"stereo","bits_per_sample":0,"id":"N/A","r_frame_rate":"0/0","avg_frame_rate":"0/0","time_base":"1/14112000","start_pts":324870,"start_time":0.023021,"duration_ts":4444263936,"duration":314.928,"bit_rate":175153,"max_bit_rate":"N/A","bits_per_raw_sample":"N/A","nb_frames":"N/A","nb_read_frames":"N/A","nb_read_packets":"N/A","tags":{"encoder":"Lavc56.60"},"disposition":{"default":0,"dub":0,"original":0,"comment":0,"lyrics":0,"karaoke":0,"forced":0,"hearing_impaired":0,"visual_impaired":0,"clean_effects":0,"attached_pic":0,"timed_thumbnails":0,"captions":0,"descriptions":0,"metadata":0,"dependent":0,"still_image":0}},{"index":1,"codec_name":"mjpeg","codec_long_name":"Motion JPEG","profile":"Baseline","codec_type":"video","codec_tag_string":"[0][0][0][0]","codec_tag":"0x0000","width":500,"height":500,"coded_width":500,"coded_height":500,"closed_captions":0,"has_b_frames":0,"sample_aspect_ratio":"1:1","display_aspect_ratio":"1:1","pix_fmt":"yuvj420p","level":"-99","color_range":"pc","color_space":"bt470bg","color_transfer":"unknown","color_primaries":"unknown","chroma_location":"center","field_order":"unknown","refs":1,"id":"N/A","r_frame_rate":"90000/1","avg_frame_rate":"0/0","time_base":"1/90000","start_pts":2072,"start_time":0.023022,"duration_ts":28343520,"duration":314.928,"bit_rate":"N/A","max_bit_rate":"N/A","bits_per_raw_sample":8,"nb_frames":"N/A","nb_read_frames":"N/A","nb_read_packets":"N/A","tags":{"comment":"Other"},"disposition":{"default":0,"dub":0,"original":0,"comment":0,"lyrics":0,"karaoke":0,"forced":0,"hearing_impaired":0,"visual_impaired":0,"clean_effects":0,"attached_pic":1,"timed_thumbnails":0,"captions":0,"descriptions":0,"metadata":0,"dependent":0,"still_image":0}}],"format":{"filename":"C:\\Users\\sc041311\\OneDrive - Cerner Corporation\\Desktop\\musify-s3-data-creator\\routes\\data\\media\\Parinda - Saina.mp3","nb_streams":2,"nb_programs":0,"format_name":"mp3","format_long_name":"MP2/3 (MPEG audio layer 2/3)","start_time":0.023021,"duration":314.928,"size":6924146,"bit_rate":175891,"probe_score":51,"tags":{"album_artist":"Amaal Mallik (Pagalworld.mobi)","album":"Saina (Pagalworld.mobi)","artist":"Amaal Mallik (Pagalworld.mobi)","genre":"indian Pop","title":"Parinda (Pagalworld.mobi)","lyrics-eng":"Pagalworld.mobi","composer":"Manoj Muntashir","encoder":"Lavf56.40.101","date":"2021"}},"chapters":[]}}]